<?xml version="1.0" standalone="no"?>
<!DOCTYPE svg PUBLIC "-//W3C//DTD SVG 20010904//EN"
 "http://www.w3.org/TR/2001/REC-SVG-20010904/DTD/svg10.dtd">
<svg version="1.0" xmlns="http://www.w3.org/2000/svg"
 width="226.000000pt" height="150.000000pt" viewBox="0 0 226.000000 150.000000"
 preserveAspectRatio="xMidYMid meet">

<g transform="translate(0.000000,150.000000) scale(0.100000,-0.100000)"
fill="#000000" stroke="none">
<path d="M166 1439 c-52 -174 -64 -395 -32 -566 10 -51 21 -93 25 -93 4 0 17
31 29 69 12 38 29 75 38 82 8 7 56 14 114 17 l100 5 0 -26 c0 -27 -62 -211
-115 -344 -18 -45 -30 -83 -27 -83 4 0 36 8 72 18 61 17 66 21 87 63 12 24 45
115 74 201 61 181 58 178 183 178 93 0 101 -6 92 -66 l-6 -48 27 26 c43 39 77
58 140 78 l58 18 -70 6 c-241 23 -334 42 -440 91 -132 60 -247 194 -296 345
-12 36 -25 69 -29 74 -5 5 -16 -15 -24 -45z"/>
<path d="M1400 1299 c-7 -11 -9 -23 -6 -26 7 -7 46 26 46 39 0 17 -30 7 -40
-13z"/>
<path d="M652 1237 c-47 -49 -13 -107 61 -107 40 0 77 21 77 43 0 11 -45 8
-57 -4 -18 -18 -43 -2 -43 26 0 28 27 46 40 26 4 -7 20 -11 36 -9 l29 3 -22
23 c-32 31 -92 30 -121 -1z"/>
<path d="M885 1235 c-30 -29 -31 -45 -4 -79 17 -22 28 -26 69 -26 41 0 52 4
69 26 27 34 26 50 -4 79 -18 19 -35 25 -65 25 -30 0 -47 -6 -65 -25z m90 -24
c8 -26 -4 -51 -25 -51 -23 0 -36 36 -20 55 17 21 37 19 45 -4z"/>
<path d="M1120 1195 l0 -65 65 0 c51 0 65 3 65 15 0 10 -11 15 -35 15 l-35 0
0 50 c0 49 -1 50 -30 50 l-30 0 0 -65z"/>
<path d="M1320 1195 l0 -65 70 0 c56 0 70 3 70 15 0 11 -11 15 -40 15 -22 0
-40 5 -40 10 0 6 14 10 30 10 20 0 30 5 30 15 0 10 -10 15 -30 15 -16 0 -30 5
-30 10 0 6 18 10 40 10 29 0 40 4 40 15 0 12 -14 15 -70 15 l-70 0 0 -65z"/>
<path d="M1560 1240 c-26 -26 -26 -64 0 -90 16 -16 32 -20 80 -19 l60 2 0 33
c0 33 -1 34 -40 34 -42 0 -58 -23 -22 -34 10 -3 6 -4 -8 -3 -19 2 -26 8 -28
30 -4 30 21 48 41 28 13 -13 44 -15 52 -2 3 5 -2 17 -11 25 -23 24 -99 21
-124 -4z"/>
<path d="M1790 1195 c0 -63 1 -65 25 -65 24 0 25 2 25 65 0 63 -1 65 -25 65
-24 0 -25 -2 -25 -65z"/>
<path d="M1950 1240 c-47 -47 -10 -110 65 -110 52 0 85 25 85 65 0 40 -33 65
-85 65 -32 0 -51 -6 -65 -20z m85 -45 c0 -23 -4 -30 -20 -30 -21 0 -31 25 -21
51 11 28 41 12 41 -21z"/>
<path d="M2168 1063 c-45 -5 -42 3 -57 -183 -19 -223 -22 -246 -42 -278 -20
-34 -55 -48 -94 -38 -48 12 -51 40 -27 234 12 97 22 190 22 206 0 28 0 29 -46
22 -26 -3 -56 -6 -68 -6 -42 0 -47 -14 -72 -186 -27 -194 -30 -293 -10 -332
34 -65 104 -102 193 -102 79 0 122 14 170 55 67 57 84 111 99 320 7 99 16 206
18 238 l6 57 -28 -2 c-15 -1 -44 -3 -64 -5z"/>
<path d="M1498 981 c-81 -9 -149 -19 -153 -22 -3 -4 -21 -73 -40 -155 -18 -82
-43 -182 -54 -223 -11 -41 -20 -75 -18 -77 1 -1 95 -15 209 -31 161 -23 208
-27 212 -17 3 7 8 39 12 72 l6 59 -113 8 c-137 9 -141 10 -133 44 13 60 6 57
114 53 110 -5 104 -8 114 66 l6 42 -101 0 -101 0 6 32 c3 17 8 33 10 36 2 2
57 7 121 12 64 4 118 10 121 12 2 3 7 28 11 57 l6 51 -44 -1 c-24 -1 -110 -9
-191 -18z"/>
<path d="M972 921 c-96 -33 -164 -106 -204 -219 -11 -31 -20 -79 -20 -107 0
-42 4 -53 31 -77 28 -25 39 -28 100 -28 82 0 176 27 233 66 34 24 98 101 98
118 0 3 -32 6 -70 6 -70 0 -71 -1 -109 -40 -28 -30 -46 -40 -69 -40 -44 0 -56
26 -41 87 26 106 75 167 130 161 30 -3 34 -7 37 -36 l3 -33 62 6 c84 9 87 10
87 44 0 43 -20 80 -51 97 -39 20 -153 17 -217 -5z"/>
<path d="M671 911 l-54 -6 -47 -140 c-26 -77 -68 -194 -94 -259 -26 -65 -44
-121 -42 -123 7 -7 150 38 162 50 14 14 101 248 138 370 15 48 29 94 32 102 7
16 2 16 -95 6z"/>
<path d="M259 888 c-9 -7 -35 -66 -58 -132 -23 -65 -78 -202 -121 -304 -43
-103 -78 -188 -76 -189 7 -7 366 92 376 104 12 14 53 124 48 129 -3 2 -43 -5
-89 -16 -114 -27 -112 -27 -93 18 29 70 144 382 144 392 0 14 -113 12 -131 -2z"/>
<path d="M1011 792 c-42 -42 -65 -142 -33 -142 5 0 21 14 35 30 27 30 29 30
127 30 99 0 101 0 110 26 15 39 13 41 -37 33 -27 -4 -74 -8 -107 -8 -57 -1
-58 0 -52 23 9 37 -11 41 -43 8z"/>
<path d="M1669 664 c-12 -14 -28 -16 -106 -11 -105 6 -138 -8 -38 -17 36 -3
94 -9 130 -12 l65 -6 0 31 c0 24 -4 31 -19 31 -10 0 -25 -7 -32 -16z"/>
<path d="M686 540 c-41 -130 -38 -127 -145 -159 -53 -17 -124 -38 -159 -48
l-64 -18 7 -55 c4 -30 10 -59 15 -63 4 -5 70 -9 146 -9 176 -1 287 23 536 116
169 63 355 116 407 116 55 0 5 13 -100 26 -61 8 -118 19 -126 26 -11 9 -13 24
-8 62 l6 49 -36 -31 c-94 -83 -261 -124 -376 -92 -46 13 -58 27 -73 87 l-13
48 -17 -55z"/>
<path d="M1697 493 c-4 -27 -9 -57 -12 -68 -4 -16 3 -24 34 -38 55 -25 162
-127 277 -262 53 -63 98 -115 100 -115 13 0 -66 176 -121 271 -42 71 -47 76
-94 88 -27 7 -64 23 -82 37 -37 27 -79 89 -79 117 0 37 -18 15 -23 -30z"/>
</g>
</svg>
